# Blender v2.81 (sub 16) OBJ File: ''
# www.blender.org
o Cube.001
v 1.000000 -0.999364 -1.000000
v -1.000000 1.000000 -1.000000
v -1.000000 1.000000 1.000000
v 1.000000 -0.999364 1.000000
v -1.000000 -1.000000 1.000000
v -1.000000 -1.000000 -1.000000
vt 0.323899 0.016578
vt 0.323899 0.569170
vt 0.009434 0.569170
vt 0.009434 0.016578
vt 0.676101 0.402404
vt 0.990566 0.011724
vt 0.990566 0.402528
vt 0.342767 0.402528
vt 0.342767 0.011724
vt 0.657233 0.011724
vt 0.657233 0.402528
vt 0.657233 0.816780
vt 0.342767 0.816780
vt 0.342767 0.425976
vt 0.657233 0.425976
vt 0.323899 0.597472
vt 0.323899 0.988276
vt 0.009434 0.597596
vn 0.7070 0.7072 0.0000
vn 0.0000 -0.0000 1.0000
vn -1.0000 -0.0000 0.0000
vn 0.0003 -1.0000 -0.0000
vn 0.0000 0.0000 -1.0000
s 1
f 1/1/1 2/2/1 3/3/1 4/4/1
f 4/5/2 3/6/2 5/7/2
f 5/8/3 3/9/3 2/10/3 6/11/3
f 6/12/4 1/13/4 4/14/4 5/15/4
f 6/16/5 2/17/5 1/18/5
